<svg id="Layer_1" data-name="Layer 1" xmlns="http://www.w3.org/2000/svg"  xmlns:xlink="http://www.w3.org/1999/xlink" viewBox="0 0 861.28 891.89"><defs><style>.cls-1{fill:url(#linear-gradient);}.cls-2{fill:url(#linear-gradient-2);}.cls-3{fill:url(#linear-gradient-3);}.cls-4{fill:url(#linear-gradient-4);}.cls-5{fill:url(#linear-gradient-5);}</style><linearGradient id="linear-gradient" x1="569.29" y1="331.11" x2="767.13" y2="216.88" gradientUnits="userSpaceOnUse"><stop offset="0" stop-color="#557a40"/><stop offset="1" stop-color="#143524"/></linearGradient><linearGradient id="linear-gradient-2" x1="479.98" y1="417.3" x2="629.84" y2="330.78" xlink:href="#linear-gradient"/><linearGradient id="linear-gradient-3" x1="391.4" y1="505.55" x2="508.48" y2="437.96" xlink:href="#linear-gradient"/><linearGradient id="linear-gradient-4" x1="-30.31" y1="727.44" x2="739.3" y2="283.1" xlink:href="#linear-gradient"/><linearGradient id="linear-gradient-5" x1="263.09" y1="619.99" x2="381.81" y2="551.44" xlink:href="#linear-gradient"/></defs><path class="cls-1" d="M495.5,191.64c.49,11.08,4.13,22.57,12.54,30.29s18.69,12.55,30.29,12.55h30.06q4,.28,7.94.72a199.72,199.72,0,0,1,37.93,10.05,164,164,0,0,1,27.6,15.89A151.68,151.68,0,0,1,660.74,280a168,168,0,0,1,16.38,28.47,225.24,225.24,0,0,1,11.53,44.12,338.1,338.1,0,0,1,2.17,40.87,43.7,43.7,0,0,0,6.33,22.16,41.5,41.5,0,0,0,6.22,8.13c7.43,7.43,19.61,13,30.28,12.54,11.08-.49,22.57-4.13,30.29-12.54a53.77,53.77,0,0,0,5-6.41l.06-.08.47-.76A41.24,41.24,0,0,0,775.59,402a40.67,40.67,0,0,0,.9-8.53v-59q0-34.83,0-69.65a137.76,137.76,0,0,0-2.9-26.63c-1.34-6.72-3.87-12.87-6.53-19.16s-5.33-12.22-9.21-17.78a126.11,126.11,0,0,0-34.78-34.32c-7-4.67-14.85-7.8-22.64-10.94a76.21,76.21,0,0,0-14.86-4.41c-24.55-4.54-50.21-2.77-75.06-2.77-14.22,0-28.45-.05-42.67-.07-1.58-.1-3.17-.21-4.75-.29a172.81,172.81,0,0,0-24.4.32l-.36,0a32.28,32.28,0,0,0-16.5,3.69A32.11,32.11,0,0,0,508,161.35C500.61,168.78,495,181,495.5,191.64Z"/><path class="cls-2" d="M529,378a93.46,93.46,0,0,1,8.08,8.09,103.25,103.25,0,0,1,7.21,12.32,139.74,139.74,0,0,1,6.75,25.76,223.22,223.22,0,0,1,1,23.56,43.44,43.44,0,0,0,6.35,22.2,41.51,41.51,0,0,0,6.19,8.08c7.43,7.43,19.62,13,30.29,12.55,11.08-.5,22.57-4.13,30.29-12.55a52.36,52.36,0,0,0,6.11-8.13,41.89,41.89,0,0,0,4.46-9.58,41,41,0,0,0,2-12.57c0-26.44.1-52.88,0-79.31-.07-16.15-4.3-33.72-13.59-47.15-12.67-18.33-31-33.3-53.24-38-16.66-3.54-33.86-2.51-50.77-2.51H501.48c-3.77-.32-7.53-.54-11.27-.63a116.48,116.48,0,0,0-14.29.63h-1v.1c-3.77.4-7.54.89-11.4,1.43-9.44,1.32-21.3,11.55-25.6,19.68a44.13,44.13,0,0,0-5.08,27.31c2.8,20.84,20.59,37.15,42.07,37.15h24.35a115.05,115.05,0,0,1,18.4,5A95.52,95.52,0,0,1,529,378Z"/><path class="cls-3" d="M405.11,486.24a87.8,87.8,0,0,1,9.44,5.48,84.79,84.79,0,0,1,7,7,88.88,88.88,0,0,1,5.74,9.91,111.94,111.94,0,0,1,3.92,14.07c0,.08,0,.16.05.24.21,1,.44,2,.63,3,1,5.23,4,10.59,7.82,15.24a38.76,38.76,0,0,0,3.2,3.67,40.09,40.09,0,0,0,4.27,3.62,33.59,33.59,0,0,0,9.23,5.41c.83.36,1.68.67,2.53,1l.26.1a37.65,37.65,0,0,0,12.66,2.39h.57c.25,0,.51,0,.76,0l.32,0a34.92,34.92,0,0,0,11.07-1.51c1.13-.36,2.25-.78,3.36-1.22a37.83,37.83,0,0,0,13.89-8.21,35.33,35.33,0,0,0,8.35-10.25c.21-.51.43-1,.64-1.52a44.58,44.58,0,0,0,3.35-7.93l.33-.79c.17-.66.25-1.32.4-2s.33-1.53.46-2.31.25-1.39.33-2.09a41.15,41.15,0,0,0,.34-5c0-19.55,1.06-39.26-2-58.63-2.16-13.81-9.26-26.1-18.42-36.44-7.75-8.75-20.65-16.4-32.17-18.58s-22-2-33.44-2H404.15a44.23,44.23,0,0,0-30.29,12.54c-7.42,7.43-13,19.62-12.54,30.29.49,11.08,4.13,22.57,12.54,30.29l8.67,6.7a42.55,42.55,0,0,0,16.05,5.48C400.78,484.81,403,485.48,405.11,486.24Z"/><path class="cls-4" d="M801.28,429.62,427.53,601a106.23,106.23,0,0,1-111.42,88.89c-53.47-3.24-96.78-47-99.54-100.47a106.25,106.25,0,0,1,92.58-111L518.34,95a26.19,26.19,0,0,0-24.92-34.21H350.58c-170.32,0-308.4,138.08-308.4,308.4V853H526C696.32,853,834.4,714.92,834.4,544.59V454.87A26.18,26.18,0,0,0,801.28,429.62Z"/><circle class="cls-5" cx="322.45" cy="585.72" r="68.53"/></svg>